<svg xmlns="http://www.w3.org/2000/svg" viewBox="0 0 1247 1226"><defs><style>.cls-1{fill:none;stroke:#b3b3b3;stroke-width:55px;}.cls-1,.cls-10{stroke-miterlimit:10;}.cls-2{fill:#ffe33a;}.cls-3{fill:#fe9811;}.cls-4{fill:#f54447;}.cls-5{fill:#132865;}.cls-6{fill:#2a9dd1;}.cls-7{fill:#24b373;}.cls-10,.cls-8{fill:#fff;}.cls-9{fill:#b3b3b3;}.cls-10{stroke:#fff;stroke-width:2px;}</style></defs><g id="Capa_2" data-name="Capa 2"><g id="Capa_1-2" data-name="Capa 1"><circle class="cls-1" cx="613" cy="613" r="585.5"/><path class="cls-2" d="M678.15,214.51c-13.76-23.38-38.78-20.5-59-7.88a14.63,14.63,0,0,1-21.08-6.41V107.36H596.8l-.1,0c-176,5.2-329.51,100.23-416.18,240.83l67.52,39c2.24-12.39,7.29-23,14.84-30.92,9.28-9.67,21.92-14.85,36.56-15a57.31,57.31,0,0,1,57,57.93c-.48,18.59-10.21,30.49-20.56,38.66l65,37.5A252.12,252.12,0,0,1,596.65,361.79l.15.09h1.26V270.19a14.63,14.63,0,0,1,20.59-6.73c14.24,8.12,28.24,15.2,44.15,6.56,19.34-10.52,26.5-36.55,15.35-55.51Z"/><path class="cls-3" d="M299.42,356.78c-27.13.23-37.14,23.33-36.33,47.16A14.64,14.64,0,0,1,247,419l-80.41-46.43-.63,1.09v.11C82.43,528.82,88,709.24,166.42,854.6l67.52-39c-9.61-8.13-16.3-17.83-19.35-28.31-3.74-12.87-1.91-26.4,5.31-39.14a57.31,57.31,0,0,1,78.66-20.39c15.86,9.71,21.3,24.09,23.2,37.14l65-37.5a252.12,252.12,0,0,1-.5-226.42l.15-.09.63-1.09L307.59,454a14.62,14.62,0,0,1,4.47-21.19c14.15-8.27,27.29-16.86,27.75-34.95.57-22-18.39-41.23-40.39-41.05Z"/><path class="cls-4" d="M233.26,755.9c-13.37,23.61,1.64,43.83,22.68,55.05a14.63,14.63,0,0,1,5,21.46l-80.41,46.43.63,1.09.09.06c92.52,149.85,251.55,235.25,416.66,240v-78c-11.84,4.26-23.59,5.2-34.2,2.6-13-3.19-23.81-11.55-31.24-24.17a57.32,57.32,0,0,1,21.68-78.31c16.33-8.88,31.51-6.4,43.76-1.53v-75A252.13,252.13,0,0,1,401.56,752.84v-.17l-.63-1.09-79.41,45.85A14.63,14.63,0,0,1,305.4,783c-.08-16.38-1-32.06-16.4-41.5-18.77-11.5-44.89-4.69-55.74,14.45Z"/><path class="cls-5" d="M545.84,1012.76c13.76,23.38,38.77,20.5,59,7.88a14.63,14.63,0,0,1,21.08,6.42v92.85h1.26l.1-.05c176-5.2,329.51-100.23,416.18-240.83l-67.52-39c-2.24,12.39-7.29,23-14.84,30.92-9.28,9.67-21.91,14.85-36.56,15a57.33,57.33,0,0,1-57-57.93c.48-18.58,10.21-30.49,20.56-38.66l-65-37.5A252.14,252.14,0,0,1,627.33,865.48l-.15-.09h-1.26v91.7a14.62,14.62,0,0,1-20.59,6.72c-14.23-8.12-28.24-15.2-44.15-6.55-19.34,10.51-26.5,36.54-15.34,55.5Z"/><path class="cls-6" d="M924.56,870.49c27.13-.23,37.14-23.33,36.33-47.16A14.64,14.64,0,0,1,977,808.28l80.41,46.43.63-1.09v-.11c83.52-155.06,78-335.48-.47-480.85l-67.53,39c9.61,8.13,16.31,17.83,19.35,28.31,3.74,12.87,1.91,26.4-5.31,39.14a57.31,57.31,0,0,1-78.66,20.39c-15.86-9.71-21.3-24.09-23.2-37.14l-65,37.51a252.13,252.13,0,0,1,.49,226.41l-.15.09-.63,1.09,79.41,45.85a14.62,14.62,0,0,1-4.47,21.19c-14.15,8.27-27.28,16.86-27.75,35-.56,22,18.39,41.22,40.39,41Z"/><path class="cls-7" d="M990.72,471.37c13.37-23.61-1.64-43.83-22.68-55.05a14.63,14.63,0,0,1-5-21.46l80.41-46.43-.63-1.08-.09-.07C950.23,197.43,791.2,112,626.09,107.27v78c11.85-4.26,23.6-5.2,34.2-2.6,13,3.19,23.81,11.55,31.24,24.17a57.32,57.32,0,0,1-21.68,78.31c-16.33,8.88-31.51,6.41-43.76,1.53v75A252.13,252.13,0,0,1,822.42,474.43v.18l.63,1.08,79.41-45.84a14.62,14.62,0,0,1,16.12,14.47c.09,16.38,1,32.06,16.4,41.51,18.78,11.49,44.9,4.68,55.74-14.46Z"/><circle class="cls-8" cx="614.5" cy="612.5" r="226.5"/><path class="cls-8" d="M429.6,999.89c.93,5.54,3.83,9.46,7.25,13.06,1.52,1.61,3.54,2.83,4.74,4.63,1,1.46,1.85,3.83,1.3,5.22s-2.86,2.17-4.48,3.07c-.47.26-1.21.05-1.83.05q-31.08,0-62.17,0c-2.74,0-5.33-.19-6.42-3.17s.83-4.78,2.93-6.53c5-4.19,8.8-9.23,10.26-16.35H377q-19.25,0-38.49,0c-10.11,0-15.88-5.74-15.88-15.79q0-54.23,0-108.44c0-9.82,5.8-15.58,15.68-15.58H472.66c10.08,0,15.81,5.74,15.81,15.82q0,54,0,108.07c0,10.29-5.71,15.91-16.12,15.92H429.6Zm-97.46-33.43H479V876.74c0-6-1.14-7.15-7.1-7.15H339.36c-6.17,0-7.21,1.07-7.21,7.4q0,42.57,0,85.13Zm146.81,10H332.14v6.1c0,6.9.95,7.83,7.93,7.83h131c1,0,2,0,3,0,3.06-.18,4.82-1.77,4.91-4.87C479,982.56,479,979.62,479,976.45Zm-87.23,23.62c-2.42,5.73-4.6,10.87-6.81,16.09h41.23l-7.21-16.09Z"/><path class="cls-8" d="M401.76,954.84H348.87c-1.1,0-2.54.37-3.25-.18-1.51-1.16-3.3-2.62-3.77-4.3-.7-2.42,1-4.18,3.48-4.82a13,13,0,0,1,3.31-.2H455.52a15.83,15.83,0,0,1,2.58.08c2.65.46,4.31,2.06,4.26,4.76s-1.69,4.28-4.39,4.62a24.17,24.17,0,0,1-3,.05Z"/><path class="cls-8" d="M371.52,881.43c7.76,0,15.52,0,23.28,0,3.76,0,5.89,1.69,6,4.55.1,3-2.1,4.89-6,4.9q-23.46.06-46.93,0c-4,0-6.14-1.76-6.12-4.8s2.09-4.65,6.19-4.66C355.75,881.42,363.64,881.43,371.52,881.43Z"/><path class="cls-8" d="M446,880.43c-.54,1.88-.76,2.83-1.08,3.75q-7.59,22.38-15.19,44.75c-.9,2.66-2.22,4.74-5.44,4.49-3.53-.28-5-3.35-3.53-7.62q6.35-18.7,12.77-37.38c1-2.91,1.91-5.85,3-8.71.93-2.36,2.95-3.67,5.3-2.76C443.51,877.6,444.75,879.36,446,880.43Z"/><path class="cls-8" d="M368.91,933.48c-7.15,0-14.3,0-21.45,0-3.76,0-5.79-1.74-5.78-4.7s2.05-4.73,5.81-4.74q21.27-.07,42.54,0c4,0,6.1,1.89,6,5s-2.1,4.47-6,4.49C383,933.5,375.94,933.48,368.91,933.48Z"/><path class="cls-8" d="M456.93,905.09c-3.2-2.45-6.08-4.57-8.85-6.8s-3.2-4.85-1.29-7c2.06-2.36,4.5-2.33,6.91-.54,4.54,3.39,9.09,6.78,13.52,10.31,3.08,2.46,3.1,5.64,0,8.09-4.52,3.61-9.16,7.09-13.82,10.53-2.49,1.84-5,1.54-6.8-.95s-1.11-4.72,1.1-6.52C450.59,909.86,453.56,907.67,456.93,905.09Z"/><path class="cls-8" d="M408.74,905.08c3,2.3,5.7,4.36,8.38,6.48,2.9,2.3,3.54,5,1.8,7.27s-4.47,2.54-7.46.31c-4.24-3.17-8.46-6.36-12.63-9.63-3.68-2.89-3.72-5.9-.11-8.75q6.39-5,12.93-9.84c2.75-2,5.46-1.85,7.19.34s1.26,5-1.36,7.07S411.88,902.66,408.74,905.08Z"/><path class="cls-8" d="M363.9,912.15c-5.54,0-11.08,0-16.62,0-3.12,0-5.33-1.14-5.57-4.53-.22-3,1.9-4.83,5.6-4.85,11.2,0,22.4,0,33.6,0,3.12,0,5.33,1.14,5.57,4.53.22,3-1.9,4.8-5.6,4.84C375.22,912.2,369.56,912.15,363.9,912.15Z"/><path class="cls-8" d="M405.26,988a30.26,30.26,0,0,1-5.13-.06c-2.6-.45-4.52-2.35-3.85-4.86.45-1.72,2.45-3.91,4.1-4.24,3.29-.67,6.83-.37,10.24-.17A4.34,4.34,0,0,1,415,983.2a4.43,4.43,0,0,1-4.2,4.73,42.17,42.17,0,0,1-5.51.05Z"/><path class="cls-8" d="M746.81,993.85c2.59-8.48,5.64-17.53,9.19-26.75a280.72,280.72,0,0,1,22.62-46.48,11.07,11.07,0,0,1-2.3-6.59,167.08,167.08,0,0,0-41.63-3.16,11.33,11.33,0,0,1-8.75,10.56,175,175,0,0,0,20.82,72.42Z"/><path class="cls-8" d="M768.33,1036a182.77,182.77,0,0,1-16.51-20.34,11.67,11.67,0,0,1-3.85.77c-1.27,5-2.33,9.55-3.19,13.44A90.38,90.38,0,0,0,768.33,1036Z"/><path class="cls-8" d="M841.77,951.94a111.91,111.91,0,0,0-13.65-13.49,113.37,113.37,0,0,0-30.91-18.18,11.49,11.49,0,0,1-12.62,4.42,273.46,273.46,0,0,0-21.81,44.82c-3.47,9-6.45,17.81-9,26.08a11.3,11.3,0,0,1,4.87,6.49,121.85,121.85,0,0,0,68-23.81,130.58,130.58,0,0,0,12.66-10.61,11.14,11.14,0,0,1,2.45-15.72Z"/><path class="cls-8" d="M797,907.07a11.1,11.1,0,0,1,2.28,6.29,120.23,120.23,0,0,1,50.06,36.38,11.56,11.56,0,0,1,4.86,1.39,114.89,114.89,0,0,0,12.23-19.4l1.11.48a87.41,87.41,0,0,0-25.74-47.13,90.41,90.41,0,0,0-9.25-7.71C818.8,883.89,807,894.52,797,907.07Z"/><path class="cls-8" d="M740.09,996.6a179.58,179.58,0,0,1-21.46-75.8,11.38,11.38,0,0,1-6.55-7.77q-7.87,1.15-16,2.87A87.21,87.21,0,0,0,703,994.62a189,189,0,0,0,33.8,6.79A11.36,11.36,0,0,1,740.09,996.6Z"/><path class="cls-8" d="M861.06,984.51a84.32,84.32,0,0,0-6.35-13.94,11.6,11.6,0,0,1-6.12,1.75,11.82,11.82,0,0,1-3.28-.47A140.06,140.06,0,0,1,831,984a128.78,128.78,0,0,1-57.54,23.71,142.7,142.7,0,0,1-15.07,1.43,11.34,11.34,0,0,1-1,1.94,172.62,172.62,0,0,0,21.7,25.6,90.1,90.1,0,0,0,64.66-26.83,87.89,87.89,0,0,0,17.46-25.34Z"/><path class="cls-8" d="M859.1,956.5a11.11,11.11,0,0,1,.42,7.94,109,109,0,0,1,5.4,10.35,87.23,87.23,0,0,0,3.87-32.44A137.74,137.74,0,0,1,859.1,956.5Z"/><path class="cls-8" d="M725.88,899.45a11.45,11.45,0,0,1,6.63,4.36q5.44-.28,10.73-.29A166.06,166.06,0,0,1,777.9,907l.66.15a11.47,11.47,0,0,1,9.22-4.61,11.62,11.62,0,0,1,3.2.46c10.67-13.39,22.29-23.47,34.69-30.12a90.94,90.94,0,0,0-96.91,2.76A193.64,193.64,0,0,0,725.88,899.45Z"/><path class="cls-8" d="M712.83,905.73a11.35,11.35,0,0,1,5.78-5.62q.48-9,1.81-18.11c-1.85,1.6-3.66,3.28-5.4,5a88.34,88.34,0,0,0-15.26,20.86Q706.38,906.64,712.83,905.73Z"/><path class="cls-8" d="M741.07,1014.38a11.31,11.31,0,0,1-4.4-5.92,189.27,189.27,0,0,1-27.13-4.72,90.86,90.86,0,0,0,7.47,8,89.46,89.46,0,0,0,21.09,15C738.92,1023.09,739.91,1018.93,741.07,1014.38Z"/><path class="cls-9" d="M502.39,571a65.62,65.62,0,0,0,5.81,13.89l-7,8.9a7.35,7.35,0,0,0,.55,9.69l12.09,12.15a7.2,7.2,0,0,0,9.63.55l8.8-7a63.78,63.78,0,0,0,14.36,6.11l1.32,11.38a7.25,7.25,0,0,0,7.19,6.45h17.11a7.25,7.25,0,0,0,7.19-6.45l1.26-11a64.17,64.17,0,0,0,15.39-6.25l8.51,6.77a7.23,7.23,0,0,0,9.63-.55l12.1-12.16a7.29,7.29,0,0,0,.54-9.68l-6.62-8.44a64,64,0,0,0,6.34-15.21l10.2-1.18a7.29,7.29,0,0,0,6.42-7.24v-17.2a7.27,7.27,0,0,0-6.42-7.23l-10.06-1.18a64.09,64.09,0,0,0-6.08-15l6.19-7.87a7.33,7.33,0,0,0-.54-9.68l-12.07-12.13a7.2,7.2,0,0,0-9.62-.55l-7.6,6a63.65,63.65,0,0,0-15.73-6.62l-1.15-9.89a7.26,7.26,0,0,0-7.19-6.45H555.81a7.27,7.27,0,0,0-7.2,6.45l-1.14,9.89a63.29,63.29,0,0,0-16.14,6.85l-7.88-6.28a7.25,7.25,0,0,0-9.63.55l-12.09,12.16a7.3,7.3,0,0,0-.55,9.68l6.6,8.39a62.78,62.78,0,0,0-6,15.18l-10.54,1.21a7.27,7.27,0,0,0-6.42,7.23v17.2a7.29,7.29,0,0,0,6.42,7.24Zm62-46.53A28.44,28.44,0,1,1,536.09,553,28.4,28.4,0,0,1,564.38,524.51Z"/><path class="cls-9" d="M733.52,575.28l-9-7.67a7.12,7.12,0,0,0-9.51.26l-5,4.7a50.89,50.89,0,0,0-13.3-4.32l-1.4-6.92a7.21,7.21,0,0,0-7.62-5.76l-11.78,1a7.19,7.19,0,0,0-6.56,6.94l-.23,7a51.7,51.7,0,0,0-12.7,6.72l-6-4a7.14,7.14,0,0,0-9.43,1.35l-7.62,9.14a7.2,7.2,0,0,0,.25,9.56l5.22,5.59a54,54,0,0,0-3.84,12.8l-7.45,1.52a7.25,7.25,0,0,0-5.73,7.67l1,11.84a7.21,7.21,0,0,0,6.91,6.6l8,.26a53,53,0,0,0,5.7,11L639,657.4a7.22,7.22,0,0,0,1.35,9.47l9,7.67a7.11,7.11,0,0,0,9.51-.26l5.91-5.56a51.53,51.53,0,0,0,12.12,4l1.63,8.13a7.22,7.22,0,0,0,7.63,5.76l11.78-1a7.19,7.19,0,0,0,6.56-6.94l.26-8a52.83,52.83,0,0,0,12.12-6.17l6.5,4.32a7.14,7.14,0,0,0,9.43-1.35l7.63-9.08a7.2,7.2,0,0,0-.26-9.56L735,643.25a52.11,52.11,0,0,0,4.13-12.85l7.17-1.47a7.25,7.25,0,0,0,5.73-7.67l-1-11.84a7.19,7.19,0,0,0-6.9-6.6l-7.2-.23a52.29,52.29,0,0,0-6-11.87l3.93-5.93A7.2,7.2,0,0,0,733.52,575.28Zm-44.39,68.46a23.28,23.28,0,1,1,21.12-25.16A23.19,23.19,0,0,1,689.13,643.74Z"/><path class="cls-9" d="M543.6,675.61a7.17,7.17,0,0,0-6.42,7.08l-.09,7.29a7.19,7.19,0,0,0,6.25,7.24l5.33.69a42,42,0,0,0,3.78,9.3L549,711.48a7.19,7.19,0,0,0,.43,9.56l5.07,5.22a7.12,7.12,0,0,0,9.51.66l4.27-3.31a42,42,0,0,0,9.52,4.18l.57,5.53a7.17,7.17,0,0,0,7.05,6.45l7.25.09a7.14,7.14,0,0,0,7.19-6.28l.66-5.25a42.55,42.55,0,0,0,10.32-4l4,3.26a7.12,7.12,0,0,0,9.52-.44l5.19-5.1a7.23,7.23,0,0,0,.66-9.56l-3.07-4a41.87,41.87,0,0,0,4.35-10.08l4.76-.49a7.19,7.19,0,0,0,6.42-7.09l.09-7.29a7.17,7.17,0,0,0-6.25-7.23l-4.64-.61A43.67,43.67,0,0,0,628,665.58l2.9-3.57a7.22,7.22,0,0,0-.43-9.57l-5.08-5.22a7.12,7.12,0,0,0-9.51-.66l-3.47,2.68A42.07,42.07,0,0,0,602,644.69l-.46-4.53a7.17,7.17,0,0,0-7-6.45l-7.25-.09a7.16,7.16,0,0,0-7.19,6.29l-.58,4.49a43.14,43.14,0,0,0-10.8,4.44L565,645.9a7.12,7.12,0,0,0-9.52.43l-5.22,5.13a7.23,7.23,0,0,0-.65,9.57l3.06,4a42.67,42.67,0,0,0-4.1,10.09Zm46.8-8.25a19,19,0,1,1-19.09,18.73A18.94,18.94,0,0,1,590.4,667.36Z"/><path class="cls-8" d="M468.79,333.5l-5.89-2.34a52.29,52.29,0,0,1,3-6.18L471.4,328a47.14,47.14,0,0,0-2.61,5.46Z"/><path class="cls-8" d="M474.63,322.7l-5.32-3.44c1.19-1.83,2.43-3.65,3.67-5.44l5.2,3.62c-1.2,1.73-2.4,3.49-3.55,5.26Z"/><path class="cls-8" d="M481.89,312.14l-5.21-3.61c1.25-1.8,2.44-3.55,3.51-5.25l5.36,3.37C484.44,308.43,483.19,310.26,481.89,312.14Z"/><path class="cls-8" d="M488.87,300.86l-5.58-3q1.48-2.78,2.84-5.63l5.72,2.73C490.9,297,489.91,298.92,488.87,300.86Z"/><path class="cls-8" d="M494.56,289l-5.83-2.48c.83-2,1.62-3.91,2.35-5.86l5.93,2.22C496.24,284.89,495.43,286.93,494.56,289Z"/><path class="cls-8" d="M504.73,250.7l-6.31-.54c.16-1.93.24-3.8.24-5.57V244l6.33,0v.63C505,246.54,504.91,248.59,504.73,250.7Z"/><path class="cls-8" d="M498.27,237.92a53.05,53.05,0,0,0-1.06-6l6.17-1.45a61,61,0,0,1,1.18,6.7Z"/><path class="cls-8" d="M495.5,226.07a56.6,56.6,0,0,0-2.37-5.62l5.7-2.78a61.66,61.66,0,0,1,2.63,6.28Z"/><path class="cls-8" d="M490.16,215.13a54.66,54.66,0,0,0-3.54-5l5-4a67,67,0,0,1,3.94,5.54Z"/><path class="cls-8" d="M482.57,205.56a59,59,0,0,0-4.52-4.14l4-4.88a65.55,65.55,0,0,1,5,4.58Z"/><path class="cls-8" d="M473.13,197.74c-1.68-1.13-3.45-2.2-5.26-3.18l3-5.57c2,1.07,3.94,2.25,5.79,3.49Z"/><path class="cls-8" d="M462.32,191.9c-1.86-.79-3.8-1.51-5.77-2.13l1.91-6c2.16.69,4.3,1.47,6.34,2.34Z"/><path class="cls-8" d="M450.59,188.17c-2-.44-4-.8-6.08-1.06l.81-6.29c2.23.29,4.47.68,6.64,1.16Z"/><path class="cls-8" d="M495.49,256.09a9.48,9.48,0,0,0-8.91,6.34H467V249.76h12.67a3.16,3.16,0,0,0,3.16-3.17h0V233.34a9.49,9.49,0,1,0-6.33,0v10.08H467v-6.33a3.17,3.17,0,0,0-3.17-3.17h-6.34V217.5a9.5,9.5,0,1,0-6.33,0v16.42H438.48V183.35a3.17,3.17,0,0,0-3.17-3.17h0c-39.08,0-69.69,28.29-69.69,64.41,0,17.16,6.81,39.87,17.78,59.28,2,3.48,4.53,7.14,7.25,11,5.75,8.2,12.15,17.41,12.85,25.44a9,9,0,0,0-3.81,7.51,9.42,9.42,0,0,0,2.1,5.89,9.74,9.74,0,0,0-2.91,7,9.52,9.52,0,0,0,9.5,9.5h53.85a9.56,9.56,0,0,0,9.51-9.62v-.11a9.46,9.46,0,0,0-2.92-6.82,9.78,9.78,0,0,0,2.11-6.07,9.09,9.09,0,0,0-9.1-9.07H438.48V278.27h6.33v9.5a3.17,3.17,0,0,0,3.17,3.17h9.5v3.75a9.5,9.5,0,1,0,6.34,0v-6.92a3.17,3.17,0,0,0-3.17-3.17h-9.5v-6.33h12.67A3.17,3.17,0,0,0,467,275.1h0v-6.34h19.59a9.48,9.48,0,1,0,8.91-12.67Zm-15.83-34.84a3.17,3.17,0,1,1-3.17,3.17A3.16,3.16,0,0,1,479.66,221.25Zm-83.82,90c-2.63-3.75-5.11-7.29-6.93-10.5-10.3-18.23-17-40.28-17-56.16,0-31.59,26.18-56.54,60.18-58v22.12c-.84.07-1.7.14-2.62.26a3.16,3.16,0,0,0-2.71,2.49l-1,4.59c-.79.19-1.58.4-2.38.64l-3.15-3.52a3.15,3.15,0,0,0-3.6-.8,47.57,47.57,0,0,0-10,5.81,3.18,3.18,0,0,0-1.1,3.52l1.45,4.43c-.6.56-1.18,1.15-1.74,1.75l-4.43-1.46a3.21,3.21,0,0,0-3.52,1.1,48.31,48.31,0,0,0-5.82,10,3.17,3.17,0,0,0,.8,3.6l3.52,3.16c-.23.78-.44,1.57-.63,2.35l-4.93,1a3.15,3.15,0,0,0-2.54,3.1V261.5a3.15,3.15,0,0,0,2.54,3.1l4.93,1c.19.79.4,1.58.63,2.36l-3.52,3.15a3.17,3.17,0,0,0-.8,3.6,47.36,47.36,0,0,0,5.82,10,3.2,3.2,0,0,0,3.52,1.11l4.43-1.46c.56.6,1.14,1.18,1.74,1.75l-1.45,4.42a3.18,3.18,0,0,0,1.1,3.52,47.36,47.36,0,0,0,10,5.82,3.17,3.17,0,0,0,3.6-.8l3.16-3.52c.79.24,1.58.45,2.37.64l1,4.59a3.16,3.16,0,0,0,2.71,2.49c.92.11,1.78.19,2.62.25v35.09H409.7c-1.3-9.33-7.91-18.83-13.86-27.31Zm11-55.16a28.55,28.55,0,0,0,25.34,28.33v10.89l-.52-2.49a3.17,3.17,0,0,0-2.54-2.47,34.1,34.1,0,0,1-5.52-1.49,3.26,3.26,0,0,0-1.07-.19,3.18,3.18,0,0,0-2.36,1.06l-3,3.32a40.76,40.76,0,0,1-4.77-2.8l1.38-4.18a3.17,3.17,0,0,0-1-3.41,34.51,34.51,0,0,1-4.05-4.06,3.19,3.19,0,0,0-3.4-1L401.15,279a41.35,41.35,0,0,1-2.8-4.77l3.33-3a3.15,3.15,0,0,0,.86-3.43,34.83,34.83,0,0,1-1.48-5.52,3.18,3.18,0,0,0-2.5-2.54l-4.43-.88v-5.61l4.43-.88a3.19,3.19,0,0,0,2.5-2.55,35.42,35.42,0,0,1,1.48-5.52,3.16,3.16,0,0,0-.86-3.43l-3.33-3a41.35,41.35,0,0,1,2.8-4.77l4.19,1.37a3.17,3.17,0,0,0,3.4-1,35.38,35.38,0,0,1,4.06-4.06,3.17,3.17,0,0,0,1-3.4l-1.38-4.18a40.76,40.76,0,0,1,4.77-2.8l3,3.32a3.18,3.18,0,0,0,3.43.87,34.1,34.1,0,0,1,5.52-1.49,3.17,3.17,0,0,0,2.54-2.46l.52-2.5v10.89a28.54,28.54,0,0,0-25.34,28.32Zm25.34-21.92V278a22.14,22.14,0,0,1,0-43.84Zm30.09,129.74H408.38a3.23,3.23,0,0,1-3.17-3.28s0-.08,0-.12a3.17,3.17,0,0,1,3.16-3.16h53.85a3.23,3.23,0,0,1,3.18,3.28s0,.07,0,.11A3.18,3.18,0,0,1,462.23,363.91Zm-.81-19a2.9,2.9,0,0,1,3.16,2.62c0,.11,0,.22,0,.32a3.17,3.17,0,0,1-3.17,3.17H409.2a3.23,3.23,0,0,1-3.18-3.28s0-.07,0-.11a2.85,2.85,0,0,1,3-2.73h52.41Zm-.77-44.46a3.17,3.17,0,1,1-3.17,3.17A3.17,3.17,0,0,1,460.65,300.44Zm-6.33-95a3.17,3.17,0,1,1-3.17,3.17A3.17,3.17,0,0,1,454.32,205.41Zm6.33,66.52H438.48V240.26h22.17Zm34.84-3.17a3.17,3.17,0,1,1,3.17-3.16A3.16,3.16,0,0,1,495.49,268.76Z"/><path class="cls-8" d="M880.83,389.53c-7.79-1.45-14.69-5.37-22.05-8-4-1.45-8-3.16-12-4.75a9.85,9.85,0,0,1-5.35-13.42c2.93-6.35,5.84-12.71,8.79-19.06,1.63-3.52,4.66-4.53,8.13-2.74,2.16,1.12,4.24,2.41,6.46,3.39a37.76,37.76,0,0,0,20.54,2.82,39.46,39.46,0,0,0,15-5.3,14.49,14.49,0,0,1,4.28-1.69,5.5,5.5,0,0,1,6.17,2.72c3,5,5.84,10.14,8.75,15.22,1.09,1.9,2.19,3.81,3.25,5.73,2.45,4.44.94,9.49-3.72,11.49-10,4.3-20.14,8.44-30.24,12.57a27.89,27.89,0,0,1-4.19,1Z"/><path class="cls-8" d="M880.14,285.52a27.25,27.25,0,1,1-27.2,27.3A27.33,27.33,0,0,1,880.14,285.52Z"/><path class="cls-8" d="M847.9,324.62c-8.3,0-16.6,0-24.89.15a16.42,16.42,0,0,0-8.6,2.87c-8.81,6.19-17.32,12.83-27.18,20.22,0-6.33-.09-11.3,0-16.27s-2-7.1-7-7c-11.18.19-22.36.12-33.54,0-9.81-.06-15.32-5.41-15.35-15.17q-.12-40.51,0-81c0-10.41,5.46-15.61,16-15.62q58.7,0,117.39,0c10,0,15.55,5.58,15.57,15.58q.06,25.29,0,50.57c1.11-.1,2.22-.16,3.35-.16a38.06,38.06,0,0,1,5.89.47q0-25.4-.05-50.79c0-15.67-9.36-24.88-25.16-24.9q-58.71-.09-117.4,0c-15.63,0-25.12,9.46-25.18,25.05q-.15,40,0,79.95c0,15.91,9.5,25.2,25.51,25.29,9.84.06,19.69,0,30.39,0,0,7.53-.19,14.23.12,20.9.1,2.18,1,5.57,2.46,6.12,1.87.71,5.05-.22,6.89-1.54,10-7.15,19.6-14.85,29.69-21.86a20.73,20.73,0,0,1,10.6-3.46c8-.28,16.06-.24,24.09-.2A36.93,36.93,0,0,1,847.9,324.62Z"/><path class="cls-10" d="M803.59,220.15a49.7,49.7,0,1,0,49.7,49.7A49.76,49.76,0,0,0,803.59,220.15Zm4.58,94.31c-.78.08-1.57.14-2.37.17V295h16.56a54,54,0,0,1-3.13,7.56C816.09,308.69,812.26,312.76,808.17,314.46ZM788.4,302.59a52.87,52.87,0,0,1-3.13-7.56h15.67v19.58l-1.37-.1C795.44,312.84,791.57,308.75,788.4,302.59ZM758.83,272.5h18.73a88,88,0,0,0,2.21,17.67H763.63A44.44,44.44,0,0,1,758.83,272.5Zm60.4-34.94a53.91,53.91,0,0,1,3.13,7.55H805.8v-20l.59,0C811.15,226.25,815.64,230.57,819.23,237.56ZM823.77,250a82.43,82.43,0,0,1,2.32,17.67H805.8V250Zm-22.83-24.79v19.93H785.27a52.74,52.74,0,0,1,3.13-7.55C791.92,230.72,796.29,226.43,800.94,225.18Zm0,24.79v17.67h-19.4A82.43,82.43,0,0,1,783.86,250Zm-23.38,17.67H758.81a44.51,44.51,0,0,1,4.6-17.67h16.36A88,88,0,0,0,777.56,267.64Zm4,4.86h19.4v17.67H783.86A82.43,82.43,0,0,1,781.54,272.5Zm24.26,17.67V272.5h20.29a82.43,82.43,0,0,1-2.32,17.67Zm24.27-17.67h18.28a44.6,44.6,0,0,1-4.79,17.67H827.85A87.31,87.31,0,0,0,830.07,272.5Zm0-4.86A87.31,87.31,0,0,0,827.85,250h15.93a44.51,44.51,0,0,1,4.6,17.67ZM841,245.11H826.54a57.8,57.8,0,0,0-3.78-9.37,37.08,37.08,0,0,0-6.09-8.78A45,45,0,0,1,841,245.11Zm-49.84-18.33a36.24,36.24,0,0,0-6.26,9,57.8,57.8,0,0,0-3.78,9.37H766.22A44.93,44.93,0,0,1,791.13,226.78ZM766.51,295h14.58a57.43,57.43,0,0,0,3.78,9.37,37.4,37.4,0,0,0,5.67,8.35A45.06,45.06,0,0,1,766.51,295Zm50.75,17.53a37.84,37.84,0,0,0,5.5-8.16,57.43,57.43,0,0,0,3.78-9.37h14.14A45.08,45.08,0,0,1,817.26,312.56Z"/><path class="cls-8" d="M884.47,681.53c2.44-10.59,8.81-18.69,16.86-25.45,13.15-11.06,21.55-24.91,27.8-40.86,10.59-27,22.49-53.53,33.85-80.25,2.95-7,5.6-7.41,11.1-1.89,10.2,10.23,20.37,20.49,30.4,30.59,14.14-6.66,25.51-5.48,34.19,3.24,8.5,8.54,9.65,20,3,33.9,6,6,12.26,12.15,18.47,18.33q6,6,12,12c5.81,5.84,5.44,8.14-2,11.33q-45.87,19.59-91.77,39.12c-1.75.75-3.46,1.58-5.76,2.64,7.82,7.79,15.31,15.23,22.76,22.71,4.12,4.14,4.14,6,0,10.1-5.84,5.88-11.75,11.67-17.63,17.5h-3.18l-27.47-29.07c-2.27,2.74-3.36,4.33-4.72,5.64a34.17,34.17,0,0,1-46.82.89c-6-5.38-8.81-12.44-11.07-19.85Zm152.62-35c-2.86-2.14-5-3.41-6.78-5.13q-24.79-24.66-49.48-49.43c-2.42-2.42-4.59-5-1.36-8,2.87-2.69,5.48-1,7.72,1.4,1,1,2,2,3,3Q1016,614.2,1041.94,640c1.19,1.19,3.43,2.7,4.58,2.3,5.53-1.9,10.85-4.4,15.56-6.4l-92.63-92.54c-13.21,31-26.7,62.52-40,94.14-.51,1.23.38,3.75,1.45,4.84,10.61,10.86,21.46,21.5,32.1,32.33,2,2,3.5,2.11,6,1,9-4,18.12-7.76,27.19-11.63C1009.21,658.48,1022.26,652.89,1037.09,646.54Zm-114.35,1.62c-7.64,7.49-15.65,14.71-22.91,22.61-8.55,9.31-8.08,23.58.38,32.78,8.63,9.39,23.4,11.36,32.94,3,8.57-7.47,15.82-16.45,23.47-24.56Zm64,64.12-21.85-21.94-10.25,10,21.9,22.2Zm25.79-141.93,22.4,22.48a15.68,15.68,0,0,0-2.4-19.08C1027.05,568,1019.63,566.76,1012.49,570.35Z"/><path class="cls-8" d="M1082.57,584.67c-2.81,0-5.77.56-8.36-.19-1.89-.55-3.27-2.84-4.88-4.36,1.58-1.53,3.05-4.22,4.77-4.38a88.5,88.5,0,0,1,17.3,0c1.66.17,3.92,2.8,4.27,4.61.21,1.12-2.47,3.65-4.21,4.09-2.81.7-5.91.19-8.89.19Z"/><path class="cls-8" d="M1020.18,522.36c0-2.82-.55-5.81.2-8.41.49-1.7,2.86-3.94,4.41-4s4.26,2.36,4.4,3.87a97.46,97.46,0,0,1,0,17.42c-.14,1.53-3.13,4.17-4.3,3.92a7.34,7.34,0,0,1-4.57-4.44c-.78-2.59-.19-5.59-.19-8.41Z"/><path class="cls-8" d="M1062.32,548.08c-3.83.09-6.46-3.71-4.17-6.43a144.56,144.56,0,0,1,14-14.2c.91-.82,4-.45,5.09.51s1.83,4.21,1.11,5c-4.66,5.18-9.74,10-14.73,14.86C1063.33,548.13,1062.63,548,1062.32,548.08Z"/><path class="cls-8" d="M1057.22,555.24c-3.33,2.1-5.24,4.22-7,4.09-1.49-.11-3.88-2.79-3.87-4.33s2.55-4.09,4-4.13C1052.16,550.84,1054,553,1057.22,555.24Z"/><path class="cls-8" d="M970.69,568.22c1.87,3.35,3.85,5.31,3.67,7.06-.15,1.48-2.77,2.72-4.3,4.07-1.39-1.65-3.66-3.2-3.88-5C966,572.93,968.37,571.2,970.69,568.22Z"/><path class="cls-8" d="M265.49,663.43l-85.1-90.16,38.19-35.92,85.07,90.13Zm-31-91.37a8.22,8.22,0,0,0-5.64,4.39c-1,1.95.34,3.16,1.48,4.38q11.91,12.66,23.84,25.29c7.2,7.63,14.39,15.27,21.67,22.82,1,1,3,2.57,3.68,2.22a15.21,15.21,0,0,0,5.39-4.46c1.18-1.61-.76-2.87-1.81-4q-10.67-11.4-21.43-22.75-11.93-12.63-23.9-25.22A29.79,29.79,0,0,0,234.49,572.06ZM225,561.6c-.91-1.09-2.06-2.62-3.36-4-4.28-4.54-4.41-3.5-8.41.09a3.1,3.1,0,0,0-.23,4.66c1.06,1.29,2.24,2.48,3.38,3.69s2.23,2.28,3.74,1.36C222.12,566.18,224.69,565.3,225,561.6Z"/><path class="cls-8" d="M188.49,606.89l-2.9,3.49c3.19,3.31,6.59,6.79,9.92,10.33A15.47,15.47,0,0,1,198,624a4,4,0,0,1-5.43,5.21,11.64,11.64,0,0,1-2.32-1.62c-3.95-3.55-7.87-7.14-12-10.89l-2.53,2.35,2.25,2.35c2.88,3,5.8,5.94,8.63,9a13.11,13.11,0,0,1,2.07,3,3.5,3.5,0,0,1-.89,4.19,3.65,3.65,0,0,1-4.39,1,10.83,10.83,0,0,1-3-2.16c-3.67-3.73-7.26-7.53-11-11.46l-3.12,3.27c3.61,3.77,7.13,7.44,10.64,11.13a16.85,16.85,0,0,1,1.72,2,4.19,4.19,0,0,1-.45,5.57,4.11,4.11,0,0,1-5.58.17c-1.57-1.29-2.92-2.85-4.42-4.22-2.84-2.6-5.72-5.15-8.64-7.77a4.6,4.6,0,0,0-1.72,5.16,11.65,11.65,0,0,0,2.48,4.49Q172.51,657.67,185,670.4c4.57,4.71,7.94,4.71,12.71.13q14.51-13.92,29-27.87l2.7-2.56,8.26,8.71c-2.49,2.23-5,4.35-7.36,6.61q-16.8,16.11-33.55,32.26a20.06,20.06,0,0,1-2.48,2.13,5.07,5.07,0,0,1-6.64-.16,22.87,22.87,0,0,1-2.4-2.22q-20.82-21.52-41.61-43.06c-4-4.11-3.95-6.77.17-10.73q19.82-19.11,39.67-38.2c.62-.59,1.28-1.14,2-1.83,1.41,1.48,2.71,2.83,4,4.2,5.56,5.87,11.14,11.73,16.62,17.66.7.75,1.52,2.36,1.2,2.86a4.78,4.78,0,0,1-3.19,2.16,6.18,6.18,0,0,1-4-1.68C196.16,615,192.46,611,188.49,606.89Z"/><path class="cls-8" d="M282.6,590.32c3.93-4.28,7.54-8.48,11.42-12.41,5.32-5.39,10.85-10.58,16.27-15.88,4.44-4.33,4.5-7.77.24-12.18q-12.21-12.66-24.45-25.3c-4.19-4.33-7.53-4.43-11.83-.34q-10.62,10.1-21.17,20.25c-.41.39-.78.83-1.27,1.35.59.65,1.1,1.24,1.64,1.8,5.88,6.08,11.82,12.1,17.58,18.28a6.73,6.73,0,0,1,1.78,4.39,4.76,4.76,0,0,1-2.53,3.33,4.32,4.32,0,0,1-3.88-.75c-9.37-9.68-18.59-19.52-27.84-29.32-.15-.15-.22-.38-.87-1.14a10.63,10.63,0,0,0,2.05-1.26Q257.4,524.19,275,507.19c4-3.87,6.8-3.85,10.63.12q21.19,21.91,42.36,43.87c3.62,3.76,3.61,6.5-.13,10.12Q309.6,579,291.23,596.66c-.42.4-.89.74-1.46,1.21Z"/><path class="cls-8" d="M201.93,518.27,162.83,555c-5-5.62-10.08-11-14.73-16.77-2.62-3.24-2.13-7.16-.12-10.7a17.68,17.68,0,0,1,3.17-3.85q9.79-9.35,19.72-18.56a18.66,18.66,0,0,1,3.67-2.72,9.75,9.75,0,0,1,12.07,1.49C191.7,508.61,196.71,513.37,201.93,518.27Zm-22.35-7.2-23.15,21.79,7.06,7.4,23.1-21.76Z"/><path class="cls-8" d="M308.44,632.63c1.62,5.07,3.15,9.83,4.66,14.59q4.53,14.34,9,28.71.47,1.46.81,2.94c1.13,4.78-2.58,8.41-7.24,6.83-5.5-1.86-10.9-4.05-16.34-6.11l-26.49-10.11c-.74-.29-1.46-.61-2.47-1ZM283.15,665.9c.78.37,1.28.64,1.8.84,4.61,1.76,9.25,3.45,13.84,5.28a3,3,0,0,0,3.7-.71c2.23-2.2,4.5-4.35,6.84-6.42a3.2,3.2,0,0,0,.94-3.88c-1.57-4.68-3-9.41-4.52-14.11-.16-.5-.4-1-.68-1.65Z"/><path class="cls-8" d="M176.53,569.14l-9.85-10.44,38.16-35.91,9.83,10.42Z"/><path class="cls-8" d="M298.84,549a14.49,14.49,0,1,1-14.22-14.64A14.43,14.43,0,0,1,298.84,549Zm-8.72-.14a5.79,5.79,0,1,0-5.78,5.77A5.62,5.62,0,0,0,290.12,548.82Z"/><rect class="cls-9" x="1046.82" y="828.63" width="200.18" height="200.18" rx="100.09"/><path class="cls-8" d="M1148.16,850a34.46,34.46,0,0,1,4.11,1.1c6.64,2.65,10.16,7.65,10.84,14.71l.07.83h22a16.57,16.57,0,0,1,16.58,15.1c.06.66.11,1.34.11,2q0,49.35,0,98.69c0,6.8-3.09,11.88-9,15.18a14.5,14.5,0,0,1-7.08,1.85c-26.22,0-52.43,0-78.65,0a16.21,16.21,0,0,1-15.06-11.32,18.29,18.29,0,0,1-.91-5.64q-.08-49.51,0-99.05a16.79,16.79,0,0,1,14.82-16.74,10.87,10.87,0,0,1,1.28-.05h22.44a44.4,44.4,0,0,1,1.16-5.31,16.36,16.36,0,0,1,11.5-10.78c.84-.24,1.71-.37,2.56-.55Zm-18.27,27.74a1.27,1.27,0,0,0-.29-.09q-10.71,0-21.43,0a7.37,7.37,0,0,0-2.42.41c-2.39.89-3.53,2.79-3.53,5.69q0,24.15,0,48.29,0,25.25,0,50.48a5.64,5.64,0,0,0,6,5.92q38.27,0,76.54,0a5.72,5.72,0,0,0,6.1-6.09c-.11-6.37,0-12.74,0-19.11q0-39.78,0-79.56c0-3.76-2.26-6.05-6-6.05h-21.63c0,1.87,0,3.61,0,5.34a5.6,5.6,0,0,1-5.84,5.79h-21.49a5.57,5.57,0,0,1-5.92-5.88C1129.88,881.17,1129.89,879.47,1129.89,877.74Zm22.12-11a5.5,5.5,0,1,0-5.55,5.43A5.38,5.38,0,0,0,1152,866.71Z"/><path class="cls-8" d="M1136.86,945.06c2.43-2.5,4.57-4.77,6.78-7q14.27-14.3,28.55-28.56A8.22,8.22,0,1,1,1183.93,921c-7,7-14,14-21,21l-19.76,19.78c-3.74,3.75-8.67,3.79-12.39.07l-16.06-16a8.24,8.24,0,1,1,11.57-11.73c3.24,3.18,6.42,6.4,9.62,9.62A11.82,11.82,0,0,1,1136.86,945.06Z"/></g></g></svg>