<svg xmlns="http://www.w3.org/2000/svg" viewBox="0 0 175.44 175.44"><defs><style>.cls-1{fill:#fe9811;}.cls-2{fill:#fff;}</style></defs><g id="Capa_2" data-name="Capa 2"><g id="Capa_1-2" data-name="Capa 1"><rect class="cls-1" width="175.44" height="175.44"/><path class="cls-2" d="M110.42,137.86,51.27,75.2l26.54-25,59.13,62.65ZM88.86,74.35A5.74,5.74,0,0,0,85,77.41c-.69,1.35.23,2.2,1,3q8.26,8.8,16.56,17.58c5,5.3,10,10.61,15.06,15.86.7.73,2.07,1.79,2.56,1.55a10.56,10.56,0,0,0,3.75-3.11c.82-1.11-.53-2-1.25-2.77q-7.43-7.94-14.9-15.81Q99.47,85,91.15,76.22A21.43,21.43,0,0,0,88.86,74.35Zm-6.61-7.26c-.63-.76-1.43-1.82-2.33-2.78-3-3.16-3.07-2.43-5.85.06a2.15,2.15,0,0,0-.16,3.24c.74.89,1.55,1.72,2.35,2.56s1.55,1.58,2.6,1C80.27,70.27,82.06,69.66,82.25,67.09Z"/><path class="cls-2" d="M56.9,98.57l-2,2.42c2.22,2.3,4.58,4.72,6.89,7.18a10.53,10.53,0,0,1,1.7,2.3,2.75,2.75,0,0,1-3.78,3.62,7.72,7.72,0,0,1-1.6-1.13c-2.75-2.46-5.47-5-8.34-7.57L48,107l1.57,1.63c2,2.08,4,4.13,6,6.25A8.42,8.42,0,0,1,57,117a2.42,2.42,0,0,1-.62,2.91,2.52,2.52,0,0,1-3,.66,7.52,7.52,0,0,1-2-1.5c-2.55-2.59-5.05-5.23-7.67-8l-2.17,2.27c2.51,2.62,5,5.17,7.4,7.73A11.11,11.11,0,0,1,50,122.5a2.91,2.91,0,0,1-.31,3.87,2.86,2.86,0,0,1-3.88.11c-1.09-.9-2-2-3.07-2.93-2-1.81-4-3.58-6-5.4a3.18,3.18,0,0,0-1.2,3.58,8.27,8.27,0,0,0,1.72,3.13c5.67,6,11.41,11.93,17.16,17.85,3.17,3.27,5.52,3.27,8.83.09q10.08-9.68,20.14-19.37l1.87-1.78,5.75,6c-1.73,1.55-3.47,3-5.11,4.59Q74.23,143.48,62.6,154.72a15.19,15.19,0,0,1-1.73,1.48,3.52,3.52,0,0,1-4.61-.12,15.24,15.24,0,0,1-1.67-1.54q-14.48-15-28.92-29.93c-2.76-2.85-2.74-4.7.11-7.46q13.78-13.28,27.58-26.54c.43-.41.89-.8,1.43-1.28l2.78,2.92c3.85,4.09,7.73,8.15,11.55,12.28.48.52,1,1.64.83,2A3.3,3.3,0,0,1,67.73,108,4.28,4.28,0,0,1,65,106.85C62.23,104.21,59.65,101.43,56.9,98.57Z"/><path class="cls-2" d="M122.31,87.05c2.72-3,5.24-5.89,7.93-8.63,3.7-3.75,7.54-7.35,11.31-11,3.08-3,3.13-5.4.17-8.47q-8.49-8.79-17-17.59c-2.91-3-5.23-3.07-8.22-.23-4.92,4.67-9.81,9.38-14.71,14.07-.29.28-.54.58-.88.94.4.45.76.87,1.14,1.26,4.08,4.22,8.21,8.4,12.21,12.7a4.65,4.65,0,0,1,1.24,3.05,3.28,3.28,0,0,1-1.76,2.31,3,3,0,0,1-2.7-.52c-6.51-6.73-12.92-13.56-19.35-20.38-.1-.1-.14-.26-.6-.79a7.9,7.9,0,0,0,1.43-.87Q104.79,41.08,117,29.27c2.79-2.69,4.72-2.67,7.38.08q14.74,15.24,29.45,30.49c2.51,2.62,2.5,4.52-.09,7Q141.06,79.2,128.3,91.46c-.29.27-.62.51-1,.83Z"/><path class="cls-2" d="M66.24,37,39.06,62.52c-3.46-3.9-7-7.65-10.24-11.65-1.82-2.26-1.47-5-.08-7.44a12.28,12.28,0,0,1,2.2-2.68q6.81-6.49,13.71-12.9A13.06,13.06,0,0,1,47.2,26a6.8,6.8,0,0,1,8.39,1C59.13,30.25,62.61,33.57,66.24,37ZM50.7,32,34.62,47.11l4.9,5.14,16-15.12Z"/><path class="cls-2" d="M140.26,116.45c1.13,3.53,2.19,6.83,3.24,10.14q3.15,10,6.29,20,.33,1,.57,2c.78,3.32-1.8,5.84-5,4.75-3.83-1.29-7.58-2.81-11.36-4.25l-18.41-7c-.52-.19-1-.42-1.72-.71Zm-17.57,23.13c.54.26.88.44,1.25.58,3.2,1.22,6.43,2.4,9.61,3.67a2.12,2.12,0,0,0,2.58-.49q2.33-2.29,4.75-4.47a2.21,2.21,0,0,0,.65-2.69c-1.09-3.26-2.09-6.54-3.14-9.81-.11-.35-.28-.68-.47-1.14Z"/><path class="cls-2" d="M48.58,72.32l-6.84-7.25,26.52-25,6.83,7.25C66.22,55.71,57.46,64,48.58,72.32Z"/><path class="cls-2" d="M133.59,58.3a10.07,10.07,0,1,1-9.88-10.17A10,10,0,0,1,133.59,58.3Zm-6.06-.1a4,4,0,1,0-4,4A3.91,3.91,0,0,0,127.53,58.2Z"/></g></g></svg>