<svg xmlns="http://www.w3.org/2000/svg" viewBox="0 0 175 175"><defs><style>.cls-1{fill:#b3b3b3;}.cls-2{fill:#fff;}</style></defs><g id="Capa_2" data-name="Capa 2"><g id="Capa_1-2" data-name="Capa 1"><rect class="cls-1" width="175" height="175"/><path class="cls-2" d="M90,16a30.54,30.54,0,0,1,3.67,1c5.93,2.36,9.08,6.83,9.68,13.14l.07.74h19.68A14.81,14.81,0,0,1,137.9,44.31q.09.9.09,1.8,0,44.08,0,88.18a14.64,14.64,0,0,1-8.08,13.56,12.88,12.88,0,0,1-6.32,1.66q-35.13,0-70.28,0a14.51,14.51,0,0,1-13.46-10.12,16.61,16.61,0,0,1-.81-5Q39,90.09,39,45.83a15,15,0,0,1,13.24-15,8.62,8.62,0,0,1,1.14-.05h20a39.63,39.63,0,0,1,1-4.74,14.58,14.58,0,0,1,10.28-9.63c.74-.22,1.52-.34,2.28-.5ZM73.66,40.74a1.43,1.43,0,0,0-.26-.08q-9.59,0-19.16,0a6.52,6.52,0,0,0-2.15.37c-2.14.79-3.16,2.49-3.16,5.08q0,21.58,0,43.15,0,22.56,0,45.11a5,5,0,0,0,5.33,5.29q34.2,0,68.41,0a5.12,5.12,0,0,0,5.45-5.44c-.1-5.69,0-11.38,0-17.08q0-35.55,0-71.09c0-3.36-2-5.41-5.38-5.41H103.37c0,1.67,0,3.22,0,4.77a5,5,0,0,1-5.22,5.17H79a5,5,0,0,1-5.29-5.26C73.65,43.81,73.66,42.28,73.66,40.74Zm19.76-9.85a4.92,4.92,0,1,0-5,4.84A4.81,4.81,0,0,0,93.42,30.89Z"/><path class="cls-2" d="M79.89,100.9c2.17-2.24,4.08-4.27,6-6.24q12.75-12.78,25.52-25.52A7.34,7.34,0,1,1,122,79.41c-6.22,6.3-12.5,12.54-18.76,18.8L85.54,115.88c-3.35,3.35-7.75,3.39-11.08.07L60.11,101.6A7.36,7.36,0,1,1,70.45,91.12c2.89,2.84,5.74,5.72,8.59,8.6A10.66,10.66,0,0,1,79.89,100.9Z"/></g></g></svg>