<svg xmlns="http://www.w3.org/2000/svg" viewBox="0 0 175 175"><defs><style>.cls-1{fill:#fff;}.cls-2{fill:#b3b3b3;}</style></defs><g id="Capa_2" data-name="Capa 2"><g id="Capa_1-2" data-name="Capa 1"><rect class="cls-1" x="0.5" y="0.5" width="174" height="174"/><path class="cls-2" d="M174,1V174H1V1H174m1-1H0V175H175V0Z"/><path class="cls-2" d="M30.85,71.6a33.08,33.08,0,0,0,3,7.1l-3.61,4.54a3.75,3.75,0,0,0,.28,5l6.21,6.21a3.73,3.73,0,0,0,5,.27l4.51-3.57a33.17,33.17,0,0,0,7.37,3.12l.68,5.81a3.73,3.73,0,0,0,3.69,3.3h8.79A3.73,3.73,0,0,0,70.4,100l.65-5.61A33.21,33.21,0,0,0,79,91.23l4.37,3.46a3.73,3.73,0,0,0,4.94-.28l6.21-6.21a3.71,3.71,0,0,0,.28-4.94L91.35,79a32.46,32.46,0,0,0,3.25-7.77l5.24-.61a3.72,3.72,0,0,0,3.3-3.69V58.1a3.73,3.73,0,0,0-3.3-3.7l-5.16-.6a32.93,32.93,0,0,0-3.12-7.68l3.18-4a3.74,3.74,0,0,0-.28-4.94L88.26,31a3.71,3.71,0,0,0-4.94-.28l-3.9,3.09a32.8,32.8,0,0,0-8.08-3.39l-.59-5a3.72,3.72,0,0,0-3.69-3.3H58.28a3.73,3.73,0,0,0-3.7,3.3l-.58,5a32.73,32.73,0,0,0-8.29,3.5l-4-3.2a3.73,3.73,0,0,0-5,.28l-6.21,6.21a3.73,3.73,0,0,0-.28,4.94l3.39,4.28a32.34,32.34,0,0,0-3.06,7.75l-5.42.62a3.72,3.72,0,0,0-3.29,3.7v8.78a3.72,3.72,0,0,0,3.29,3.69ZM62.68,47.84A14.53,14.53,0,1,1,48.16,62.36,14.54,14.54,0,0,1,62.68,47.84Z"/><path class="cls-2" d="M149.51,73.77l-4.63-3.92A3.68,3.68,0,0,0,140,70l-2.56,2.39a26.28,26.28,0,0,0-6.82-2.2l-.72-3.53a3.71,3.71,0,0,0-3.92-3l-6,.52a3.67,3.67,0,0,0-3.37,3.54l-.12,3.59a26.55,26.55,0,0,0-6.52,3.43l-3.06-2a3.68,3.68,0,0,0-4.84.69l-3.91,4.67A3.66,3.66,0,0,0,98.24,83l2.68,2.86a27.66,27.66,0,0,0-2,6.53l-3.82.78a3.69,3.69,0,0,0-2.94,3.91l.51,6.05a3.69,3.69,0,0,0,3.55,3.37l4.13.13a27.09,27.09,0,0,0,2.93,5.59L101,115.7a3.67,3.67,0,0,0,.69,4.84l4.64,3.91a3.66,3.66,0,0,0,4.88-.13l3-2.84a26.48,26.48,0,0,0,6.22,2l.84,4.15a3.69,3.69,0,0,0,3.92,2.94l6-.51a3.68,3.68,0,0,0,3.37-3.55l.14-4.06a27.35,27.35,0,0,0,6.22-3.15l3.34,2.21a3.67,3.67,0,0,0,4.84-.69l3.91-4.64a3.66,3.66,0,0,0-.13-4.88l-2.69-2.85a26.69,26.69,0,0,0,2.12-6.57l3.68-.75A3.69,3.69,0,0,0,159,97.25l-.52-6a3.68,3.68,0,0,0-3.54-3.37l-3.7-.12a26.78,26.78,0,0,0-3.07-6.06l2-3A3.66,3.66,0,0,0,149.51,73.77Zm-22.79,35a11.89,11.89,0,1,1,10.85-12.85A11.9,11.9,0,0,1,126.72,108.73Z"/><path class="cls-2" d="M52,125a3.69,3.69,0,0,0-3.3,3.62l0,3.72A3.66,3.66,0,0,0,51.88,136l2.73.36a21.39,21.39,0,0,0,2,4.75l-1.77,2.18A3.66,3.66,0,0,0,55,148.2l2.61,2.66a3.66,3.66,0,0,0,4.88.34l2.19-1.69a21.65,21.65,0,0,0,4.89,2.13l.29,2.83a3.67,3.67,0,0,0,3.62,3.29l3.72.05a3.68,3.68,0,0,0,3.7-3.21l.33-2.68a21.51,21.51,0,0,0,5.3-2.06l2.06,1.67a3.69,3.69,0,0,0,4.89-.22l2.66-2.61a3.66,3.66,0,0,0,.34-4.88l-1.58-2a21.62,21.62,0,0,0,2.24-5.15l2.44-.25a3.68,3.68,0,0,0,3.3-3.62l0-3.72a3.66,3.66,0,0,0-3.21-3.69L97.34,125a22.39,22.39,0,0,0-2-5.15l1.48-1.83a3.66,3.66,0,0,0-.22-4.88L94,110.51a3.68,3.68,0,0,0-4.89-.34l-1.78,1.37A21.55,21.55,0,0,0,82,109.21l-.24-2.31a3.67,3.67,0,0,0-3.62-3.29l-3.72,0a3.66,3.66,0,0,0-3.69,3.21l-.3,2.29a22.36,22.36,0,0,0-5.55,2.27L63,109.83a3.67,3.67,0,0,0-4.89.22l-2.68,2.62a3.67,3.67,0,0,0-.34,4.88l1.58,2a22.06,22.06,0,0,0-2.11,5.15Zm24-4.21a9.68,9.68,0,1,1-9.8,9.56A9.69,9.69,0,0,1,76,120.79Z"/></g></g></svg>