<svg xmlns="http://www.w3.org/2000/svg" viewBox="0 0 175.44 175.44"><defs><style>.cls-1{fill:#24b373;}.cls-2,.cls-3{fill:#fff;}.cls-3{stroke:#fff;stroke-miterlimit:10;stroke-width:2px;}</style></defs><g id="Capa_2" data-name="Capa 2"><g id="Capa_1-2" data-name="Capa 1"><rect class="cls-1" width="175.44" height="175.44"/><path class="cls-2" d="M133.69,159.84c-5.79-1.08-10.92-4-16.39-6-3-1.08-5.94-2.36-8.9-3.54a7.33,7.33,0,0,1-4-10q3.27-7.1,6.54-14.18c1.21-2.61,3.47-3.37,6.05-2,1.6.83,3.15,1.79,4.8,2.52a28.08,28.08,0,0,0,15.28,2.09,29.09,29.09,0,0,0,11.15-3.94,11,11,0,0,1,3.19-1.26,4.09,4.09,0,0,1,4.59,2c2.23,3.74,4.35,7.54,6.51,11.31.81,1.42,1.63,2.84,2.42,4.27a5.86,5.86,0,0,1-2.77,8.55c-7.46,3.19-15,6.27-22.49,9.35a21.54,21.54,0,0,1-3.12.77Z"/><path class="cls-2" d="M133.19,82.47A20.28,20.28,0,1,1,113,102.78,20.33,20.33,0,0,1,133.19,82.47Z"/><path class="cls-2" d="M109.2,111.56c-6.17,0-12.34,0-18.51.11a12.35,12.35,0,0,0-6.4,2.13c-6.55,4.61-12.88,9.55-20.22,15,0-4.71-.07-8.41,0-12.11s-1.46-5.28-5.23-5.21c-8.32.14-16.63.09-25,0-7.29,0-11.39-4-11.42-11.28q-.09-30.15,0-60.29c0-7.74,4.07-11.61,11.94-11.62q43.67,0,87.32,0c7.42,0,11.57,4.14,11.59,11.58q0,18.81,0,37.62,1.23-.12,2.49-.12a27.54,27.54,0,0,1,4.38.35q0-18.89,0-37.78c0-11.66-7-18.5-18.72-18.52q-43.65-.07-87.32,0c-11.63,0-18.69,7-18.73,18.63q-.12,29.74,0,59.47c0,11.84,7.06,18.74,19,18.82,7.32,0,14.64,0,22.6,0,0,5.6-.15,10.58.09,15.55.07,1.62.77,4.14,1.83,4.54,1.39.54,3.76-.16,5.12-1.14,7.44-5.31,14.59-11,22.09-16.26A15.37,15.37,0,0,1,94,118.56c6-.21,11.95-.18,17.93-.15A27.42,27.42,0,0,1,109.2,111.56Z"/><path class="cls-3" d="M76.25,33.85a37,37,0,1,0,37,37A37,37,0,0,0,76.25,33.85ZM79.65,104c-.58.06-1.17.1-1.76.13V89.55H90.21a39.8,39.8,0,0,1-2.34,5.62C85.54,99.71,82.7,102.74,79.65,104ZM65,95.17a39.8,39.8,0,0,1-2.34-5.62H74.27v14.56l-1-.07C70.18,102.8,67.3,99.75,65,95.17ZM43,72.79H56.88a64.69,64.69,0,0,0,1.65,13.14h-12A33.05,33.05,0,0,1,43,72.79Zm44.92-26a39.31,39.31,0,0,1,2.34,5.62H77.89V37.5l.43,0C81.87,38.38,85.2,41.6,87.87,46.8ZM91.25,56A60.88,60.88,0,0,1,93,69.17H77.89V56Zm-17-18.44V52.42H62.61A39.31,39.31,0,0,1,65,46.8C67.56,41.71,70.81,38.52,74.27,37.59Zm0,18.44V69.17H59.84A60.88,60.88,0,0,1,61.57,56ZM56.88,69.17h-14A33.05,33.05,0,0,1,46.36,56H58.53A64.87,64.87,0,0,0,56.88,69.17Zm3,3.62H74.27V85.93H61.57A60.71,60.71,0,0,1,59.84,72.79Zm18,13.14V72.79H93a60.71,60.71,0,0,1-1.73,13.14Zm18-13.14h13.6A33.05,33.05,0,0,1,106,85.93H94.29A64.69,64.69,0,0,0,95.94,72.79Zm0-3.62A64.87,64.87,0,0,0,94.29,56h11.85a33.21,33.21,0,0,1,3.42,13.14Zm8.11-16.75H93.31a42.18,42.18,0,0,0-2.81-7A27.68,27.68,0,0,0,86,38.91,33.51,33.51,0,0,1,104.05,52.42ZM67,38.78a27.64,27.64,0,0,0-4.66,6.66,44,44,0,0,0-2.81,7H48.44A33.45,33.45,0,0,1,67,38.78ZM48.66,89.55H59.5a44.26,44.26,0,0,0,2.81,7,28.23,28.23,0,0,0,4.23,6.21A33.48,33.48,0,0,1,48.66,89.55Zm37.75,13a28.07,28.07,0,0,0,4.09-6.07,42.42,42.42,0,0,0,2.81-7h10.52A33.53,33.53,0,0,1,86.41,102.59Z"/></g></g></svg>