<svg xmlns="http://www.w3.org/2000/svg" viewBox="0 0 175.44 175.44"><defs><style>.cls-1{fill:#ffe33a;}.cls-2{fill:#fff;}</style></defs><g id="Capa_2" data-name="Capa 2"><g id="Capa_1-2" data-name="Capa 1"><rect class="cls-1" width="175.44" height="175.44"/><path class="cls-2" d="M114.91,133.42l-4.54-1.8a42.39,42.39,0,0,1,2.28-4.76l4.27,2.36a36,36,0,0,0-2,4.2Z"/><path class="cls-2" d="M119.4,125.1l-4.09-2.65c.91-1.41,1.87-2.81,2.83-4.19l4,2.79c-.92,1.33-1.85,2.69-2.74,4Z"/><path class="cls-2" d="M125,117l-4-2.78c1-1.39,1.88-2.74,2.7-4l4.13,2.6C127,114.11,126,115.52,125,117Z"/><path class="cls-2" d="M130.38,108.28l-4.3-2.31c.76-1.42,1.49-2.87,2.19-4.33l4.4,2.1Q131.57,106,130.38,108.28Z"/><path class="cls-2" d="M134.76,99.11l-4.49-1.91q1-2.25,1.81-4.52l4.57,1.72Q135.76,96.76,134.76,99.11Z"/><path class="cls-2" d="M142.6,69.63l-4.87-.41c.13-1.49.19-2.93.19-4.3v-.44l4.88,0v.48C142.8,66.42,142.73,68,142.6,69.63Z"/><path class="cls-2" d="M137.62,59.79a42.72,42.72,0,0,0-.82-4.63l4.76-1.11a47.17,47.17,0,0,1,.9,5.16Z"/><path class="cls-2" d="M135.48,50.66a40.19,40.19,0,0,0-1.82-4.34l4.39-2.13a48.78,48.78,0,0,1,2,4.83Z"/><path class="cls-2" d="M131.37,42.22a44.39,44.39,0,0,0-2.73-3.83l3.83-3a51.42,51.42,0,0,1,3,4.27Z"/><path class="cls-2" d="M125.52,34.86a44,44,0,0,0-3.48-3.2l3.11-3.76A51.44,51.44,0,0,1,129,31.43Z"/><path class="cls-2" d="M118.25,28.83c-1.29-.87-2.66-1.7-4-2.45l2.32-4.29c1.53.83,3,1.73,4.46,2.69Z"/><path class="cls-2" d="M109.92,24.33c-1.43-.61-2.93-1.16-4.45-1.64L107,18c1.67.53,3.31,1.13,4.88,1.8Z"/><path class="cls-2" d="M100.88,21.46c-1.53-.34-3.1-.62-4.68-.82l.63-4.84c1.72.22,3.44.52,5.11.89Z"/><path class="cls-2" d="M135.48,73.79a7.31,7.31,0,0,0-6.87,4.88H113.52V68.91h9.76a2.44,2.44,0,0,0,2.44-2.44h0V56.26a7.31,7.31,0,1,0-4.88,0V64h-7.32V59.15a2.44,2.44,0,0,0-2.44-2.44H106.2V44.05a7.33,7.33,0,1,0-4.88,0V56.71H91.55v-39a2.44,2.44,0,0,0-2.44-2.44h0C59,15.3,35.43,37.1,35.43,64.92c0,13.22,5.24,30.72,13.69,45.67,1.52,2.68,3.5,5.51,5.59,8.49,4.43,6.32,9.36,13.42,9.9,19.6a7,7,0,0,0-2.94,5.79A7.25,7.25,0,0,0,63.29,149a7.54,7.54,0,0,0-2.24,5.41,7.33,7.33,0,0,0,7.32,7.32h41.49a7.38,7.38,0,0,0,7.32-7.42v-.08a7.25,7.25,0,0,0-2.25-5.25,7.49,7.49,0,0,0,1.62-4.68,7,7,0,0,0-7-7h-18V90.87h4.88v7.32a2.44,2.44,0,0,0,2.44,2.44h7.33v2.89a7.32,7.32,0,1,0,4.88,0V98.19a2.44,2.44,0,0,0-2.44-2.44h-7.32V90.87h9.76a2.44,2.44,0,0,0,2.44-2.44h0V83.55h15.09a7.31,7.31,0,1,0,6.87-9.76Zm-12.2-26.85a2.44,2.44,0,1,1-2.44,2.44A2.44,2.44,0,0,1,123.28,46.94ZM58.71,116.28c-2-2.89-3.94-5.61-5.34-8.09-7.94-14-13.06-31-13.06-43.27,0-24.33,20.17-43.56,46.36-44.68V37.29c-.64,0-1.31.1-2,.19a2.46,2.46,0,0,0-2.1,1.92l-.74,3.54c-.61.14-1.22.3-1.83.49l-2.43-2.71a2.45,2.45,0,0,0-2.78-.62,36.89,36.89,0,0,0-7.68,4.48,2.44,2.44,0,0,0-.84,2.71l1.12,3.41c-.47.44-.91.89-1.35,1.35l-3.41-1.12a2.46,2.46,0,0,0-2.71.85,36.67,36.67,0,0,0-4.49,7.68A2.43,2.43,0,0,0,56,62.23l2.72,2.43c-.19.61-.35,1.21-.49,1.82l-3.8.75a2.44,2.44,0,0,0-2,2.4V78a2.44,2.44,0,0,0,2,2.39l3.8.76c.14.6.3,1.21.49,1.81L56,85.34a2.46,2.46,0,0,0-.62,2.78,36.93,36.93,0,0,0,4.49,7.68,2.46,2.46,0,0,0,2.71.85L66,95.53c.44.46.88.91,1.34,1.34l-1.12,3.41A2.46,2.46,0,0,0,67.1,103a36.93,36.93,0,0,0,7.68,4.49,2.46,2.46,0,0,0,2.78-.62L80,104.15c.61.18,1.22.35,1.83.49l.74,3.53a2.46,2.46,0,0,0,2.1,1.93c.7.08,1.37.14,2,.19v27H69.38c-1-7.19-6.09-14.5-10.67-21Zm8.44-42.49A22,22,0,0,0,86.67,95.61V104l-.4-1.92a2.43,2.43,0,0,0-2-1.9A27.53,27.53,0,0,1,80.06,99a2.52,2.52,0,0,0-.82-.14,2.42,2.42,0,0,0-1.82.81l-2.3,2.56a33,33,0,0,1-3.67-2.16l1.06-3.22a2.44,2.44,0,0,0-.74-2.63,26.35,26.35,0,0,1-3.13-3.12A2.45,2.45,0,0,0,66,90.39L62.8,91.45a32.08,32.08,0,0,1-2.16-3.67l2.56-2.3a2.43,2.43,0,0,0,.67-2.64,27.23,27.23,0,0,1-1.15-4.25,2.42,2.42,0,0,0-1.92-2L57.39,76V71.63L60.8,71a2.44,2.44,0,0,0,1.92-2,27.35,27.35,0,0,1,1.15-4.26,2.43,2.43,0,0,0-.67-2.64L60.64,59.8a33.1,33.1,0,0,1,2.16-3.68L66,57.18a2.46,2.46,0,0,0,2.63-.73,26.35,26.35,0,0,1,3.12-3.13,2.44,2.44,0,0,0,.74-2.62l-1.06-3.23a31.42,31.42,0,0,1,3.67-2.15l2.3,2.56a2.47,2.47,0,0,0,2.64.67,26.45,26.45,0,0,1,4.25-1.15,2.45,2.45,0,0,0,2-1.9l.4-1.92V52A22,22,0,0,0,67.15,73.79ZM86.67,56.9V90.68a17.06,17.06,0,0,1,0-33.78Zm23.19,99.95H68.37a2.49,2.49,0,0,1-2.44-2.53v-.09a2.45,2.45,0,0,1,2.44-2.44h41.49a2.49,2.49,0,0,1,2.44,2.53v.09A2.45,2.45,0,0,1,109.86,156.85Zm-.63-14.65a2.24,2.24,0,0,1,2.43,2,1.93,1.93,0,0,1,0,.24,2.44,2.44,0,0,1-2.44,2.44H69a2.48,2.48,0,0,1-2.44-2.52v-.09a2.22,2.22,0,0,1,2.3-2.11h40.38ZM108.64,108a2.44,2.44,0,1,1-2.44,2.44A2.45,2.45,0,0,1,108.64,108Zm-4.88-73.21a2.44,2.44,0,1,1-2.44,2.44A2.44,2.44,0,0,1,103.76,34.74ZM108.64,86H91.55V61.59h17.09Zm26.84-2.44a2.44,2.44,0,1,1,2.44-2.44A2.44,2.44,0,0,1,135.48,83.55Z"/></g></g></svg>