<svg xmlns="http://www.w3.org/2000/svg" viewBox="0 0 175.44 175.44"><defs><style>.cls-1{fill:#132865;}.cls-2{fill:#fff;}</style></defs><g id="Capa_2" data-name="Capa 2"><g id="Capa_1-2" data-name="Capa 1"><rect class="cls-1" width="175.44" height="175.44"/><path class="cls-2" d="M62.42,123c2-6.58,4.38-13.61,7.14-20.77A216.57,216.57,0,0,1,87.12,66.1,8.72,8.72,0,0,1,85.33,61,129.3,129.3,0,0,0,53,58.53a8.79,8.79,0,0,1-6.79,8.19A135.77,135.77,0,0,0,62.38,123Z"/><path class="cls-2" d="M79.13,155.65a140.51,140.51,0,0,1-12.81-15.79,9,9,0,0,1-3,.6c-1,3.9-1.82,7.41-2.48,10.43A70.11,70.11,0,0,0,79.13,155.65Z"/><path class="cls-2" d="M136.15,90.41a86.66,86.66,0,0,0-34.6-24.59,8.9,8.9,0,0,1-7.32,3.79,9.1,9.1,0,0,1-2.47-.35,212.12,212.12,0,0,0-16.94,34.79c-2.69,7-5,13.83-7,20.25a8.8,8.8,0,0,1,3.78,5,94.64,94.64,0,0,0,52.79-18.49,100.77,100.77,0,0,0,9.83-8.23,8.67,8.67,0,0,1,1.9-12.21Z"/><path class="cls-2" d="M101.35,55.57a8.63,8.63,0,0,1,1.77,4.89A93.12,93.12,0,0,1,142,88.71a8.9,8.9,0,0,1,3.77,1.07,89.91,89.91,0,0,0,9.5-15.06l.86.38a67.81,67.81,0,0,0-20-36.6,71,71,0,0,0-7.18-6C118.31,37.58,109.16,45.83,101.35,55.57Z"/><path class="cls-2" d="M57.21,125.08A139.09,139.09,0,0,1,40.55,66.23a8.78,8.78,0,0,1-5.09-6q-6.12.9-12.44,2.23a67.71,67.71,0,0,0,5.38,61.12,146.18,146.18,0,0,0,26.25,5.27A8.75,8.75,0,0,1,57.21,125.08Z"/><path class="cls-2" d="M151.12,115.7a63.65,63.65,0,0,0-4.93-10.82,9,9,0,0,1-4.75,1.36,9.23,9.23,0,0,1-2.54-.37,109.2,109.2,0,0,1-11.14,9.4,100,100,0,0,1-44.67,18.41,112.17,112.17,0,0,1-11.71,1.11,8.5,8.5,0,0,1-.75,1.51,134.16,134.16,0,0,0,16.84,19.87,70,70,0,0,0,50.21-20.83,68.61,68.61,0,0,0,13.56-19.67Z"/><path class="cls-2" d="M149.6,94a8.56,8.56,0,0,1,.75,3.51,8.66,8.66,0,0,1-.42,2.66,83.42,83.42,0,0,1,4.19,8,67.55,67.55,0,0,0,3-25.18A106.51,106.51,0,0,1,149.6,94Z"/><path class="cls-2" d="M46.17,49.66A8.88,8.88,0,0,1,51.32,53q4.23-.23,8.33-.23a129,129,0,0,1,26.91,2.7l.51.12a8.91,8.91,0,0,1,7.16-3.58,9.24,9.24,0,0,1,2.49.35C105,42,114,34.18,123.65,29a70.6,70.6,0,0,0-75.24,2.14A152.86,152.86,0,0,0,46.17,49.66Z"/><path class="cls-2" d="M36,54.54a8.78,8.78,0,0,1,4.49-4.37q.38-7,1.4-14.06c-1.43,1.24-2.84,2.55-4.19,3.92a68.65,68.65,0,0,0-11.85,16.2C29.32,55.57,32.7,55,36,54.54Z"/><path class="cls-2" d="M58,138.89a8.77,8.77,0,0,1-3.41-4.6,146.76,146.76,0,0,1-21.06-3.66,70.73,70.73,0,0,0,5.79,6.25A70,70,0,0,0,55.66,148.5C56.3,145.65,57.06,142.42,58,138.89Z"/></g></g></svg>