<svg xmlns="http://www.w3.org/2000/svg" viewBox="0 0 175.44 175.44"><defs><style>.cls-1{fill:#2a9dd1;}.cls-2{fill:#fff;}</style></defs><g id="Capa_2" data-name="Capa 2"><g id="Capa_1-2" data-name="Capa 1"><rect class="cls-1" width="175.44" height="175.44"/><path class="cls-2" d="M24.06,127.1c1.61-7,5.81-12.3,11.11-16.76,8.66-7.28,14.19-16.4,18.31-26.91,7-17.79,14.81-35.25,22.29-52.84,1.94-4.58,3.68-4.88,7.31-1.24,6.71,6.73,13.41,13.49,20,20.14,9.31-4.39,16.79-3.61,22.51,2.13S132,64.77,127.6,74c4,3.94,8.07,8,12.16,12.07,2.64,2.62,5.26,5.25,7.89,7.89,3.82,3.84,3.58,5.36-1.32,7.46q-30.21,12.9-60.44,25.76c-1.15.49-2.28,1-3.79,1.74,5.14,5.13,10.08,10,15,15,2.71,2.72,2.72,3.92,0,6.65-3.84,3.87-7.74,7.68-11.61,11.52h-2.1L65.3,142.86c-1.5,1.8-2.22,2.85-3.11,3.71a22.5,22.5,0,0,1-30.84.59c-4-3.54-5.8-8.2-7.29-13.08Zm100.51-23a47.76,47.76,0,0,1-4.46-3.39Q103.78,84.45,87.52,68.13c-1.59-1.59-3-3.29-.89-5.29,1.88-1.77,3.61-.67,5.08.92.63.68,1.31,1.33,2,2q17,17,34.08,34c.79.78,2.27,1.78,3,1.52,3.63-1.26,7.14-2.9,10.24-4.22Q110.35,66.39,80,36.11c-8.7,20.39-17.58,41.17-26.33,62a3.73,3.73,0,0,0,.95,3.19c7,7.15,14.13,14.16,21.14,21.29,1.29,1.32,2.3,1.39,3.91.67,5.93-2.64,11.94-5.11,17.91-7.65Zm-75.3,1.06c-5,4.93-10.31,9.69-15.09,14.89a16,16,0,0,0,.25,21.59c5.69,6.18,15.41,7.48,21.7,2,5.63-4.93,10.41-10.84,15.45-16.18Zm42.12,42.22L77,132.91l-6.75,6.61,14.42,14.62Zm17-93.46,14.75,14.8a10.33,10.33,0,0,0-1.58-12.57A10.67,10.67,0,0,0,108.37,53.89Z"/><path class="cls-2" d="M154.52,63.31c-1.84,0-3.8.38-5.5-.12-1.24-.36-2.16-1.87-3.21-2.87,1-1,2-2.78,3.13-2.89a59.48,59.48,0,0,1,11.4,0c1.1.11,2.58,1.85,2.81,3,.14.74-1.62,2.4-2.77,2.69-1.85.46-3.9.13-5.86.13Z"/><path class="cls-2" d="M113.44,22.28c0-1.86-.37-3.82.13-5.54.32-1.12,1.88-2.59,2.9-2.6a3.91,3.91,0,0,1,2.9,2.55,63.8,63.8,0,0,1,0,11.48c-.09,1-2.06,2.74-2.83,2.58a4.85,4.85,0,0,1-3-2.93c-.52-1.7-.13-3.68-.13-5.54Z"/><path class="cls-2" d="M141.19,39.22c-2.53.06-4.25-2.44-2.75-4.23a96,96,0,0,1,9.24-9.36c.59-.54,2.65-.29,3.35.34s1.2,2.77.73,3.3c-3.07,3.41-6.42,6.58-9.7,9.79C141.85,39.25,141.39,39.19,141.19,39.22Z"/><path class="cls-2" d="M137.83,43.94c-2.2,1.38-3.45,2.78-4.59,2.69a3.83,3.83,0,0,1-2.55-2.85,3.78,3.78,0,0,1,2.65-2.72C134.5,41,135.69,42.47,137.83,43.94Z"/><path class="cls-2" d="M80.85,52.48c1.23,2.21,2.53,3.5,2.41,4.65-.09,1-1.82,1.8-2.83,2.69-.91-1.1-2.41-2.12-2.55-3.3C77.77,55.58,79.32,54.45,80.85,52.48Z"/></g></g></svg>