<svg xmlns="http://www.w3.org/2000/svg" viewBox="0 0 175.44 175.44"><defs><style>.cls-1{fill:#f54447;}.cls-2{fill:#fff;}</style></defs><g id="Capa_2" data-name="Capa 2"><g id="Capa_1-2" data-name="Capa 1"><rect class="cls-1" width="175.44" height="175.44"/><path class="cls-2" d="M106.93,139.72c.73,4.35,3,7.43,5.7,10.26,1.19,1.27,2.78,2.23,3.72,3.64.77,1.15,1.46,3,1,4.11s-2.25,1.7-3.52,2.4c-.38.21-1,0-1.44,0q-24.44,0-48.86,0c-2.16,0-4.19-.15-5.05-2.49s.65-3.76,2.3-5.13a22,22,0,0,0,8.07-12.85H35.35c-8,0-12.48-4.51-12.48-12.41q0-42.61,0-85.22c0-7.72,4.56-12.25,12.33-12.25q52.79,0,105.58,0c7.92,0,12.42,4.51,12.42,12.44q0,42.47,0,84.92c0,8.09-4.49,12.51-12.67,12.52h-33.6ZM30.34,113.45H145.73V42.93c0-4.71-.9-5.62-5.58-5.62H36c-4.85,0-5.67.85-5.67,5.82v70.32Zm115.38,7.85H30.34v4.79c0,5.42.74,6.16,6.23,6.16h103c.77,0,1.55,0,2.32,0,2.4-.14,3.79-1.39,3.86-3.83S145.72,123.78,145.72,121.3ZM77.16,139.86c-1.9,4.5-3.62,8.55-5.35,12.64h32.4l-5.66-12.64Z"/><path class="cls-2" d="M85.05,104.31H43.49c-.87,0-2,.29-2.56-.14-1.19-.91-2.59-2.06-3-3.38-.54-1.9.84-3.28,2.74-3.79a10.23,10.23,0,0,1,2.6-.15h84a12.46,12.46,0,0,1,2,.06c2.08.36,3.39,1.62,3.35,3.74a3.53,3.53,0,0,1-3.45,3.63,17.94,17.94,0,0,1-2.32,0Z"/><path class="cls-2" d="M61.29,46.62c6.1,0,12.2,0,18.29,0,3,0,4.63,1.33,4.7,3.57s-1.65,3.85-4.75,3.86q-18.45,0-36.89,0c-3.15,0-4.82-1.38-4.81-3.77s1.65-3.65,4.87-3.66C48.89,46.61,55.09,46.62,61.29,46.62Z"/><path class="cls-2" d="M119.8,45.84c-.42,1.47-.6,2.22-.84,2.94Q113,66.36,107,84c-.71,2.09-1.75,3.73-4.28,3.53-2.77-.22-3.91-2.63-2.77-6q5-14.7,10-29.38c.79-2.28,1.5-4.6,2.39-6.84.73-1.86,2.31-2.88,4.16-2.17C117.86,43.61,118.84,45,119.8,45.84Z"/><path class="cls-2" d="M59.24,87.53c-5.62,0-11.25,0-16.87,0-2.95,0-4.55-1.37-4.54-3.7s1.61-3.71,4.57-3.72q16.73-.06,33.44,0c3.1,0,4.79,1.49,4.69,3.9s-1.66,3.52-4.72,3.53C70.29,87.55,64.76,87.53,59.24,87.53Z"/><path class="cls-2" d="M128.41,65.21c-2.52-1.92-4.77-3.58-7-5.34s-2.51-3.81-1-5.53,3.54-1.84,5.43-.43c3.57,2.67,7.14,5.33,10.63,8.11,2.42,1.93,2.43,4.43,0,6.35-3.55,2.84-7.2,5.57-10.86,8.28-2,1.45-3.91,1.21-5.35-.75s-.87-3.71.87-5.12C123.43,69,125.76,67.24,128.41,65.21Z"/><path class="cls-2" d="M90.54,65.2C92.88,67,95,68.64,97.12,70.3c2.29,1.8,2.79,3.9,1.42,5.72s-3.51,2-5.87.23c-3.33-2.48-6.65-5-9.92-7.56-2.89-2.27-2.93-4.64-.08-6.88q5-3.95,10.15-7.73c2.17-1.61,4.3-1.46,5.66.27s1,3.9-1.07,5.55S93,63.3,90.54,65.2Z"/><path class="cls-2" d="M55.29,70.76c-4.35,0-8.7,0-13.06,0-2.45,0-4.18-.9-4.38-3.56-.17-2.34,1.5-3.79,4.41-3.81,8.8,0,17.6,0,26.41,0,2.45,0,4.18.9,4.38,3.56.17,2.33-1.5,3.78-4.41,3.81C64.19,70.8,59.74,70.76,55.29,70.76Z"/><path class="cls-2" d="M87.8,130.33a23.55,23.55,0,0,1-4,0c-2-.36-3.55-1.85-3-3.82A5.29,5.29,0,0,1,84,123.13a31.83,31.83,0,0,1,8-.13,3.42,3.42,0,0,1,3.42,3.6,3.49,3.49,0,0,1-3.31,3.72,32.75,32.75,0,0,1-4.32,0Z"/></g></g></svg>