<svg xmlns="http://www.w3.org/2000/svg" viewBox="0 0 297.77 396.34"><defs><style>.cls-1{fill:#fe9811;}.cls-2{fill:#f54447;}.cls-3{fill:#2a9dd1;}.cls-4{fill:#ffe33a;}.cls-5{fill:#24b373;}</style></defs><g id="Capa_2" data-name="Capa 2"><g id="diseño"><path class="cls-1" d="M-153.17-7912.34c-25.34-24.32-48.66-45.69-73.08-64.93a521.22,521.22,0,0,0-79.87-52.24,1.46,1.46,0,0,0-2,.62,1.45,1.45,0,0,0,.21,1.66c12.83,15,25.92,31.78,37.44,50.57a251.64,251.64,0,0,1,28.11,62.84,1.47,1.47,0,0,0,1.79,1,216.12,216.12,0,0,1,50.23-4.75c14.15.48,26.77,2.81,35.42,7.55a1.47,1.47,0,0,0,2-.58A1.46,1.46,0,0,0-153.17-7912.34Z" transform="translate(449.64 8030.72)"/><path class="cls-2" d="M-152.91-7903.88c-9.18-3.6-22.84-4.72-37.11-4.3-17.66.51-36.33,3.37-48.58,6.77a1.47,1.47,0,0,0-1,1.8h0c9.26,35.73,13.55,73.52,15.06,111.56s.25,76.43-1.6,113.2a1.46,1.46,0,0,0,1.39,1.53,1.46,1.46,0,0,0,1.41-.87c17.61-40,31.52-74.61,43-110.44s20.55-72.84,28.47-117.61A1.46,1.46,0,0,0-152.91-7903.88Z" transform="translate(449.64 8030.72)"/><path class="cls-3" d="M-233.17-7785.76a698.85,698.85,0,0,0-19.08-110.81,1.46,1.46,0,0,0-1.78-1.05h0c-15.82,4.25-40.42,12.38-66.37,23.09-19.77,8.15-40.33,17.8-58.38,28.37a1.46,1.46,0,0,0-.52,2,1.43,1.43,0,0,0,.31.38c29.66,25,54.59,49.61,77.76,77.55S-256.63-7707-234-7668.6a1.45,1.45,0,0,0,2,.52,1.47,1.47,0,0,0,.72-1.18A778.35,778.35,0,0,0-233.17-7785.76Z" transform="translate(449.64 8030.72)"/><path class="cls-4" d="M-255.23-7911.51A341.57,341.57,0,0,0-281.57-7978a244.13,244.13,0,0,0-36.88-52.26,1.46,1.46,0,0,0-2.06-.07,1.44,1.44,0,0,0-.46.86c-4.86,33.73-11.68,64.69-21.5,93.62a352.22,352.22,0,0,1-39.45,81.36,1.47,1.47,0,0,0,.42,2,1.47,1.47,0,0,0,1.7-.07c15.55-12.15,35.48-23.61,56.45-33.32,22.55-10.44,46.28-18.83,67.05-23.84a1.46,1.46,0,0,0,1.08-1.77Z" transform="translate(449.64 8030.72)"/><path class="cls-5" d="M-241.58-7662.8c0-.14.1-.25.08-.4s-.08-.11-.1-.18,0-.14,0-.21-.18-.16-.26-.26a1.18,1.18,0,0,0-.39-.38,1.26,1.26,0,0,0-.51-.15c-.13,0-.23-.12-.36-.1-53.36,6.46-76.78-25.74-97.9-54.77-15.92-21.89-30.57-42-55.68-43.32-7.7-.39-18.79,1.94-29.5,7.44a64.54,64.54,0,0,0-23.17,19.61,1.38,1.38,0,0,0-.27.92,1.46,1.46,0,0,0,1.53,1.38l15.31-.81-6.44,20a1.44,1.44,0,0,0,.43,1.62,1.47,1.47,0,0,0,2.06-.17c16.77-19.87,31.56-24.94,44.53-21.77s24.55,14.75,34.39,28c17.53,23.57,36.33,36.72,53.81,43.51a90.6,90.6,0,0,0,39.36,6.08,211.89,211.89,0,0,1-56.94,9.45,201.72,201.72,0,0,1-77-13.08,1.49,1.49,0,0,0-1.06,0,1.47,1.47,0,0,0-.81,1.91l2.91,7.19-10.2,3.79h0a1.45,1.45,0,0,0-.88.91,1.47,1.47,0,0,0,.92,1.85,200.87,200.87,0,0,0,31.49,7.74,203.25,203.25,0,0,0,32.44,2.6,202,202,0,0,0,52.67-6.94,200.65,200.65,0,0,0,48.86-20.42c.08,0,.1-.13.16-.18a1.38,1.38,0,0,0,.45-.51A1.17,1.17,0,0,0-241.58-7662.8Z" transform="translate(449.64 8030.72)"/></g></g></svg>